# xmcd CD database file
#
# Track frame offsets:
#	150
#	14290
#	25857
#	45822
#	58887
#	75790
#	96417
#	109842
#	132692
#	145277
#	159955
#	180422
#	197037
#	212977
#
# Disc length: 3098 seconds
#
# Revision: 0
# Processed by: cddbd v1.5.2PL0 Copyright (c) Steve Scherf et al.
# Submitted via: CDex 1.51
#
DISCID=b80c180e
DTITLE=Hacienda Brothers - Arizona Motel
DYEAR=2008
DGENRE=Country
TTITLE0=A Lot Of Days Are Gone
TTITLE1=I'll Come Running
TTITLE2=Uncle Sam's Jail
TTITLE3=Big Town City
TTITLE4=Use To The Pain
TTITLE5=Ordinary Fool
TTITLE6=Light It Again Charlie
TTITLE7=Soul Mountain
TTITLE8=When You're Tired Of Breaking Other Hearts
TTITLE9=Look Into The Future
TTITLE10=I Still Believe
TTITLE11=Long Way To Town
TTITLE12=Divorce Or Destroy
TTITLE13=Break Free
EXTD=YEAR: 2008
EXTT0=
EXTT1=
EXTT2=
EXTT3=
EXTT4=
EXTT5=
EXTT6=
EXTT7=
EXTT8=
EXTT9=
EXTT10=
EXTT11=
EXTT12=
EXTT13=
PLAYORDER=
